<?xml version="1.0" encoding="UTF-8"?>
<svg xmlns="http://www.w3.org/2000/svg" xmlns:xlink="http://www.w3.org/1999/xlink" width="50pt" height="50pt" viewBox="0 0 50 50" version="1.1">
<g id="surface7473799">
<path style=" stroke:none;fill-rule:nonzero;fill:rgb(30.980392%,75.294118%,55.294118%);fill-opacity:1;" d="M 25 50 C 11.191406 50 0 38.808594 0 25 C 0 11.191406 11.191406 0 25 0 C 38.808594 0 50 11.191406 50 25 C 50 38.808594 38.808594 50 25 50 Z M 25 50 "/>
<path style=" stroke:none;fill-rule:nonzero;fill:rgb(100%,100%,100%);fill-opacity:1;" d="M 24.5625 7.300781 C 24.375 7.3125 24.199219 7.382812 24.0625 7.507812 C 24.0625 7.507812 22.828125 8.613281 21.628906 10.449219 C 21.390625 10.007812 20.929688 9.699219 20.398438 9.699219 L 16.800781 9.699219 C 16.035156 9.699219 15.398438 10.335938 15.398438 11.101562 L 15.398438 14.699219 C 15.398438 15.464844 16.035156 16.101562 16.800781 16.101562 L 19.476562 16.101562 C 19.429688 16.492188 19.398438 16.890625 19.398438 17.300781 C 19.398438 18.050781 19.546875 18.765625 19.796875 19.425781 C 13.683594 21.558594 9 27.550781 9 37.699219 L 9 40.101562 L 10.378906 38.261719 C 10.671875 39.3125 11.058594 40.320312 11.550781 41.269531 C 11.753906 41.660156 12.238281 41.8125 12.628906 41.609375 C 13.023438 41.40625 13.175781 40.921875 12.972656 40.53125 C 12.351562 39.332031 11.902344 38.035156 11.648438 36.671875 C 12.839844 35.265625 14.140625 33.953125 15.410156 32.78125 C 15.019531 33.851562 14.742188 34.921875 14.605469 36 L 14.355469 38.011719 L 15.914062 36.714844 C 15.914062 36.714844 20.582031 32.898438 25.800781 32.898438 C 28.15625 32.898438 29.484375 33.089844 30.667969 33.289062 C 31.855469 33.488281 32.933594 33.699219 34.601562 33.699219 C 36.398438 33.699219 37.699219 32.96875 38.441406 31.980469 C 38.699219 31.632812 38.878906 31.261719 39.023438 30.890625 C 39.082031 31.148438 39.136719 31.410156 39.183594 31.671875 C 39.183594 31.675781 39.1875 31.683594 39.1875 31.6875 C 39.214844 31.847656 39.238281 32.011719 39.257812 32.175781 C 39.285156 32.367188 39.308594 32.5625 39.328125 32.757812 C 39.339844 32.875 39.351562 32.992188 39.359375 33.109375 C 39.382812 33.4375 39.398438 33.765625 39.398438 34.101562 C 39.398438 36.421875 38.828125 38.601562 37.828125 40.53125 C 37.621094 40.921875 37.777344 41.40625 38.167969 41.609375 C 38.558594 41.8125 39.042969 41.660156 39.246094 41.269531 C 40.359375 39.125 41 36.6875 41 34.101562 C 41 33.648438 40.976562 33.203125 40.9375 32.761719 C 40.929688 32.632812 40.90625 32.503906 40.894531 32.375 C 40.859375 32.070312 40.820312 31.761719 40.769531 31.460938 C 40.742188 31.304688 40.710938 31.152344 40.679688 31 C 40.625 30.722656 40.5625 30.449219 40.492188 30.175781 C 40.453125 30.027344 40.410156 29.878906 40.367188 29.730469 C 40.285156 29.449219 40.195312 29.175781 40.097656 28.902344 C 40.054688 28.78125 40.011719 28.660156 39.96875 28.539062 C 39.84375 28.222656 39.710938 27.910156 39.570312 27.601562 C 39.535156 27.527344 39.507812 27.453125 39.472656 27.382812 C 39.304688 27.035156 39.125 26.695312 38.933594 26.363281 C 38.910156 26.324219 38.890625 26.28125 38.867188 26.242188 C 38.429688 25.492188 37.929688 24.785156 37.378906 24.125 C 37.367188 24.113281 37.359375 24.101562 37.351562 24.089844 C 37.300781 24.027344 37.277344 23.996094 37.230469 23.945312 C 37.171875 23.875 37.113281 23.804688 37.054688 23.738281 C 37.003906 23.683594 36.890625 23.546875 36.890625 23.546875 L 36.882812 23.554688 C 36.863281 23.539062 36.84375 23.519531 36.828125 23.5 C 36.699219 23.363281 36.566406 23.234375 36.4375 23.101562 C 36.300781 22.96875 36.167969 22.832031 36.03125 22.703125 C 35.914062 22.597656 35.796875 22.492188 35.679688 22.390625 C 35.503906 22.238281 35.328125 22.085938 35.148438 21.941406 C 35.058594 21.871094 34.972656 21.800781 34.882812 21.730469 C 34.648438 21.554688 34.414062 21.382812 34.171875 21.214844 C 34.117188 21.179688 34.066406 21.144531 34.011719 21.109375 C 33.0625 20.476562 32.046875 19.9375 30.964844 19.523438 C 31.242188 18.835938 31.398438 18.085938 31.398438 17.300781 C 31.398438 13.996094 28.703125 11.300781 25.398438 11.300781 C 25.023438 11.300781 25.050781 11.261719 24.976562 11.117188 C 24.90625 10.972656 24.851562 10.601562 24.894531 10.179688 C 24.980469 9.335938 25.34375 8.398438 25.34375 8.398438 C 25.441406 8.144531 25.410156 7.859375 25.25 7.636719 C 25.09375 7.414062 24.832031 7.289062 24.5625 7.300781 Z M 23.410156 10.800781 C 23.429688 11.148438 23.375 11.488281 23.546875 11.832031 C 23.847656 12.4375 24.578125 12.898438 25.398438 12.898438 C 27.839844 12.898438 29.800781 14.859375 29.800781 17.300781 C 29.800781 19.738281 27.839844 21.699219 25.398438 21.699219 C 22.960938 21.699219 21 19.738281 21 17.300781 C 21 16.675781 21.070312 16.085938 21.179688 15.523438 C 21.195312 15.46875 21.203125 15.414062 21.207031 15.355469 C 21.609375 13.5 22.527344 11.984375 23.410156 10.800781 Z M 17 11.300781 L 20.199219 11.300781 L 20.199219 12.898438 C 20.199219 12.980469 20.210938 13.058594 20.230469 13.132812 C 20.058594 13.570312 19.90625 14.027344 19.78125 14.5 L 17 14.5 Z M 20.480469 20.722656 C 21.566406 22.277344 23.367188 23.300781 25.398438 23.300781 C 26.132812 23.300781 26.835938 23.160156 27.484375 22.917969 L 27.867188 23.300781 L 26.835938 24.335938 C 26.625 24.535156 26.542969 24.832031 26.613281 25.113281 C 26.6875 25.394531 26.90625 25.613281 27.1875 25.6875 C 27.46875 25.757812 27.765625 25.675781 27.964844 25.464844 L 29 24.429688 L 29.835938 25.265625 L 28.386719 26.710938 C 28.179688 26.910156 28.09375 27.210938 28.167969 27.488281 C 28.242188 27.769531 28.460938 27.988281 28.738281 28.0625 C 29.019531 28.136719 29.316406 28.050781 29.519531 27.84375 L 30.964844 26.398438 L 31.632812 27.066406 C 31.835938 27.273438 32.132812 27.359375 32.414062 27.285156 C 32.695312 27.210938 32.914062 26.992188 32.984375 26.714844 C 33.058594 26.433594 32.976562 26.136719 32.765625 25.933594 L 29.660156 22.828125 C 29.609375 22.757812 29.546875 22.695312 29.476562 22.644531 L 28.953125 22.121094 C 29.410156 21.785156 29.8125 21.386719 30.15625 20.9375 C 30.160156 20.9375 30.164062 20.9375 30.167969 20.941406 C 31.5 21.421875 32.738281 22.101562 33.847656 22.941406 C 33.890625 22.976562 33.933594 23.011719 33.976562 23.046875 C 34.195312 23.21875 34.410156 23.394531 34.621094 23.574219 C 34.691406 23.636719 34.761719 23.703125 34.832031 23.769531 C 35.007812 23.925781 35.179688 24.089844 35.34375 24.257812 C 35.429688 24.34375 35.511719 24.433594 35.597656 24.523438 C 35.742188 24.675781 35.882812 24.832031 36.023438 24.992188 C 36.203125 25.207031 36.453125 25.515625 36.78125 26.03125 C 37.308594 26.863281 37.800781 27.953125 37.800781 28.898438 C 37.800781 29.566406 37.617188 30.40625 37.160156 31.019531 C 36.699219 31.632812 36 32.101562 34.601562 32.101562 C 33.066406 32.101562 32.144531 31.914062 30.929688 31.710938 C 29.71875 31.507812 28.246094 31.300781 25.800781 31.300781 C 21.46875 31.300781 18.417969 33.121094 16.660156 34.332031 C 17.050781 32.941406 17.59375 31.542969 18.476562 30.125 L 20.449219 26.972656 L 17.355469 29.035156 C 15.339844 30.378906 12.976562 32.761719 10.832031 35.296875 C 10.800781 35.292969 10.773438 35.289062 10.742188 35.289062 C 11.410156 27.074219 15.421875 22.546875 20.527344 20.859375 Z M 21.398438 36.898438 C 20.738281 36.898438 20.199219 37.4375 20.199219 38.101562 C 20.199219 38.761719 20.738281 39.300781 21.398438 39.300781 C 22.0625 39.300781 22.601562 38.761719 22.601562 38.101562 C 22.601562 37.4375 22.0625 36.898438 21.398438 36.898438 Z M 30.199219 36.898438 C 29.539062 36.898438 29 37.4375 29 38.101562 C 29 38.761719 29.539062 39.300781 30.199219 39.300781 C 30.863281 39.300781 31.398438 38.761719 31.398438 38.101562 C 31.398438 37.4375 30.863281 36.898438 30.199219 36.898438 Z M 30.199219 36.898438 "/>
</g>
</svg>
